<?xml version="1.0" encoding="utf-8"?>
<!-- Generator: Adobe Illustrator 19.2.0, SVG Export Plug-In . SVG Version: 6.00 Build 0)  -->
<svg version="1.1" id="Слой_1" xmlns="http://www.w3.org/2000/svg" xmlns:xlink="http://www.w3.org/1999/xlink" x="0px" y="0px" width="140" height="48" viewBox="0 0 140 48" style="enable-background:new 0 0 140 48;" xml:space="preserve">
<style type="text/css">
	.st0{fill:#333333;}
	.st1{fill:#587AB0;}
	.st2{fill:#CCCCCC;}
</style>
<g>
	<g>
		<g>
			<rect x="43" y="4" class="st1" width="16" height="1"/>
		</g>
		<g>
			<g>
				<path class="st1" d="M43,7L43,7l6,6v7l4-1v-6l0,0l6-6h0V6H43V7z M57.6,7L52,12.6l0,0l0,0v5.6l-2,0.5l0-6.1L44.4,7H57.6z"/>
			</g>
		</g>
	</g>
</g>
<g>
	<g>
		<g>
			<rect x="113" y="4" class="st1" width="16" height="1"/>
		</g>
		<g>
			<g>
				<path class="st1" d="M113,7L113,7l6,6v7l4-1v-6l0,0l6-6h0V6h-16V7z M127.6,7l-5.6,5.6l0,0l0,0v5.6l-2,0.5l0-6.1L114.4,7H127.6z"
					/>
			</g>
		</g>
	</g>
</g>
<polygon class="st2" points="135,0 105,0 105,1 134.4,1 139,12 134.3,23 105,23 105,24 135,24 140,12 "/>
<g>
	<g>
		<g>
			<rect x="81" y="4" class="st1" width="16" height="1"/>
		</g>
		<g>
			<g>
				<path class="st1" d="M97,6H81v1h0l6,6l0,0v6l4,1v-7l6-6h0V6z M95.6,7L90,12.6l0,6.1l-2-0.5v-5.6l0,0l0,0L82.4,7H95.6z"/>
			</g>
		</g>
	</g>
</g>
<polygon class="st2" points="75,0 105,0 105,1 75.6,1 71,12 75.7,23 105,23 105,24 75,24 70,12 "/>
<g>
	<g>
		<g>
			<rect x="11" y="4" class="st1" width="16" height="1"/>
		</g>
		<g>
			<g>
				<path class="st1" d="M27,6H11v1h0l6,6l0,0v6l4,1v-7l6-6h0V6z M25.6,7L20,12.6l0,6.1l-2-0.5v-5.6l0,0l0,0L12.4,7H25.6z"/>
			</g>
		</g>
	</g>
</g>
<polygon class="st2" points="0,0 35,0 35,1 1.5,1 6.9,11.6 7.1,12 6.9,12.4 1.5,23 35,23 35,24 0,24 6,12 "/>
<polygon class="st2" points="70,0 35,0 35,1 68.5,1 63.1,11.6 62.9,12 63.1,12.4 68.5,23 35,23 35,24 70,24 64,12 "/>
<g>
	<g>
		<g>
			<rect x="43" y="28" class="st1" width="16" height="1"/>
		</g>
		<g>
			<g>
				<path class="st1" d="M43,31L43,31l6,6v7l4-1v-6l0,0l6-6h0v-1H43V31z M57.6,31L52,36.6l0,0l0,0v5.6l-2,0.5l0-6.1L44.4,31H57.6z"
					/>
			</g>
		</g>
	</g>
</g>
<g>
	<g>
		<g>
			<rect x="113" y="28" class="st1" width="16" height="1"/>
		</g>
		<g>
			<g>
				<path class="st1" d="M113,31L113,31l6,6v7l4-1v-6l0,0l6-6h0v-1h-16V31z M127.6,31l-5.6,5.6l0,0l0,0v5.6l-2,0.5l0-6.1l-5.6-5.6
					H127.6z"/>
			</g>
		</g>
	</g>
</g>
<polygon class="st1" points="135,24 105,24 105,25 134.4,25 139,36 134.3,47 105,47 105,48 135,48 140,36 "/>
<g>
	<g>
		<g>
			<rect x="81" y="28" class="st1" width="16" height="1"/>
		</g>
		<g>
			<g>
				<path class="st1" d="M97,30H81v1h0l6,6l0,0v6l4,1v-7l6-6h0V30z M95.6,31L90,36.6l0,6.1l-2-0.5v-5.6l0,0l0,0L82.4,31H95.6z"/>
			</g>
		</g>
	</g>
</g>
<polygon class="st1" points="75,24 105,24 105,25 75.6,25 71,36 75.7,47 105,47 105,48 75,48 70,36 "/>
<g>
	<g>
		<g>
			<rect x="11" y="28" class="st1" width="16" height="1"/>
		</g>
		<g>
			<g>
				<path class="st1" d="M27,30H11v1h0l6,6l0,0v6l4,1v-7l6-6h0V30z M25.6,31L20,36.6l0,6.1l-2-0.5v-5.6l0,0l0,0L12.4,31H25.6z"/>
			</g>
		</g>
	</g>
</g>
<polygon class="st1" points="0,24 35,24 35,25 1.5,25 6.9,35.6 7.1,36 6.9,36.4 1.5,47 35,47 35,48 0,48 6,36 "/>
<polygon class="st1" points="70,24 35,24 35,25 68.5,25 63.1,35.6 62.9,36 63.1,36.4 68.5,47 35,47 35,48 70,48 64,36 "/>
</svg>
